<svg xmlns="http://www.w3.org/2000/svg" viewBox="0 0 800 800"><defs><style>.cls-1{fill:#ffb902;}</style></defs><g id="Logo"><path d="M238.85,451.14h-15V479h15c14,0,15.92-7,15.92-13.91S252.88,451.14,238.85,451.14Z"/><path d="M600.44,527.2a362.26,362.26,0,0,0,42.68-113.52c5.45-27.86,7.56-57.59,6.47-90.91-.36-10.94-1-21.89-1.65-32.48-.41-6.82-.83-13.64-1.16-20.46-.73-14.94-9.53-26.2-23.54-30.15q-23.73-6.66-47.4-13.52l-19.76-5.67a28.47,28.47,0,0,0-6-1l-6.24-.63a116.25,116.25,0,0,0-26.1-34.81L533.41,167,443.09,116a83.89,83.89,0,0,0-28.73-5c-2.34,0-4.67.08-7,.26-18.35,1.38-34,7.33-46.52,17.68-13.6,11.25-21.14,25.91-22.35,42.81-4.4,1.28-8.9,2.75-13.65,4.63a30.05,30.05,0,0,0-14.42,12.29q-11.48,5.42-22.92,10.89l-1.92.91c-1.54.74-3.07,1.52-4.58,2.32l-1.57.82A24.72,24.72,0,0,0,267.67,233l10,16.74c.56,13.39,9.89,22.28,13.54,25.76a61.18,61.18,0,0,0,10.1,7.84c-.25,7.39,1.25,13.7,4.36,19a81.15,81.15,0,0,0-11.33,16.38c-.65,1.24-1.25,2.51-2,4.23L286,336.58c-9.45-2.08-19.72-3.94-30.61-3.94a88.54,88.54,0,0,0-17.16,1.63,58.56,58.56,0,0,0-46.95,50.42H150v216.6h97.9V549.1l1.58,2.25A365.64,365.64,0,0,0,319,625.53c24.54,19.89,52.09,37.08,84.22,52.55a33.82,33.82,0,0,0,14.33,3.23h0a29.12,29.12,0,0,0,12.64-2.77A470.58,470.58,0,0,0,491,644.11L519,689c87.23-39.59,131-134.48,131-134.48Zm-228.83-52c.72,4,1.71,8,2.57,12l-.95.49c-3.54-4.82-7.7-9.31-10.51-14.52-16.8-31.17-15.94-62.09,2.44-92.36,9.46-15.57,23.51-26.61,37.74-37.45,11-8.4,21.84-17.05,32.69-25.54,0,.26-.16,1.21-.39,2.14-2.73,11.26-8.6,21-15.27,30.22-9.69,13.42-20.44,26.14-29.31,40.07C374.15,416.07,366.08,444.23,371.61,475.19Zm-35.36-20.65-.81.74c-3.92-6.06-8.24-11.89-11.67-18.21-7-12.89-10.13-26.77-8.22-41.44,2.9-22.25,14.46-39.9,31.57-53.42,11.94-9.42,25.45-16.87,38.42-25C396.05,310.7,406.48,304.13,415,295c12.74-13.59,20.88-29.22,20.93-48.24,0-5.52-1-11-1.56-16.56a36.85,36.85,0,0,1,8.77,10.16c7.46,13.77,6.44,27.82.09,41.67-7.53,16.43-19.82,28.74-34.47,38.94-11.75,8.17-23.82,15.95-35,24.8-27.22,21.49-40.51,50-40,84.64C333.83,438.47,335.37,446.5,336.25,454.54Zm85.59-269c-3.81.81-7.45,2.39-11.19,3.56-2.49.78-5,1.46-7.51,2.18l-.92-1.17c1.69-2.68,3.11-5.58,5.11-8a23.76,23.76,0,0,1,30.82-4.76,21.75,21.75,0,0,1,7.67,28.43c-3.89,7.57-13.58,12.17-20.59,9.61,1.38-1.65,2.77-3.22,4-4.88,3.21-4.17,5.85-8.6,5.77-14.12C435,189.06,429,184.05,421.84,185.59ZM419.16,252c-.64,15-6.85,27-17.18,36.94-12.51,12.11-27.93,19-44.16,24.37-14.54,4.8-29,9.84-41.21,19.47-.77.61-1.61,1.14-3.39,2.37,1.16-2.48,1.74-3.89,2.44-5.22a56,56,0,0,1,26-24.92c8.7-4.17,17.82-7.47,26.74-11.2,15.81-6.62,30.59-14.81,41.54-28.47C413.2,261.21,415.94,256.66,419.16,252Zm45.27-19.09c9.79,10.28,14.7,23.16,14.84,37.64.22,21.47-7.22,40.4-21.14,56.64-3.48,4.06-8,7.19-12.82,11.39C459.27,303.7,468.49,269.57,464.43,232.88Zm13.92,96.86-.2.18c-3.82,17.5-12.9,32.29-23.91,46.11-17.85,22.39-39.94,41.33-54.42,67.18a23.5,23.5,0,0,1-1.07-3.59c-1.29-10.82-1.15-21.58,2-32.1,4.72-15.55,15-27.1,27.36-37,12.07-9.6,24.38-18.9,36.43-28.53,4.9-3.92,9.39-8.34,13.57-12.11,0-.18.1-.35.14-.53v-.09C478.3,329.39,478.32,329.53,478.35,329.74ZM416,585.39c-.09-1.46-.13-2.71-.25-3.94-3.07-31.43-6.05-62.88-9.25-94.29-1.18-11.52.24-22.47,5.95-32.59,3.92-6.95,7.71-14.13,12.63-20.35,9.83-12.44,20.44-24.26,30.67-36.38,16.86-20,31.69-41.18,39.42-66.56,1.07-3.53,1.83-7.15,2.73-10.73,5.16,17.35,4.7,34.63.58,51.9-4.72,19.75-14.21,37.41-24.17,54.87-8.68,15.21-15.51,31.16-17.44,48.77-3.23,29.56-6.22,59.15-9.43,88.72-1.13,10.37-3.37,20.51-8.58,29.71-3.79,6.69-8.85,12.6-16.84,13.36-8.75.83-17.64.19-26.85.19C397.27,595.88,403.58,587.92,416,585.39Zm69.77-140.53C496.55,424,509.29,404,515.25,380c1.62,1.84,2.61,2.82,3.44,3.92,16.26,21.65,32.54,43.29,48.64,65.05a6.93,6.93,0,0,1,.69,5.6,299.72,299.72,0,0,1-31.71,61.58c-4.32,6.45-9.08,12.61-14.09,19.53C506.82,520,492,505,477.35,489.91a7.92,7.92,0,0,1-1.92-5.09C475.45,470.64,479.28,457.38,485.75,444.86Zm43.64-190.37c-4.89-5.15-8.73-9.84-13.23-13.76s-9.71-7.11-14.61-10.61l-.72,1c25.43,34.38,36.36,71.48,21.64,113.4a8.72,8.72,0,0,1-1.69-3.75c-3.37-15.05-8.5-29.38-17.6-42a9.72,9.72,0,0,1-1.83-7.74c3.62-26-3.54-48.54-21.71-67.54-.95-1-1.82-2.07-2.73-3.11l.62-.76,16.16,4.53A23.5,23.5,0,0,0,492,221.8c-7.2-7.66-14.67-15.08-21.54-23-3.45-4-5.81-9-9-14C490.32,181.9,526.64,219.33,529.39,254.49Zm-62.83-98.76c9.95,4.34,19.48,9.87,30.83,10,.09.36.18.71.28,1.06a74.29,74.29,0,0,1-7.74,3.49c-10.63,3.44-21.17,1.61-31.44-1.5-23.46-7.1-46.18-6.52-68,5.51a11,11,0,0,1-2.13.54c4.28-8,9.69-14.13,17.07-18.21C425.57,145.5,446.06,146.78,466.56,155.73Zm-90.39-8.19c9.56-7.9,20.86-11.31,33-12.23a61,61,0,0,1,25.81,3.4c-32,2.48-56.05,16.23-71.71,44.25a12.41,12.41,0,0,1-.8-2.28C361.31,167.27,365.77,156.15,376.17,147.54ZM308.7,238.78c3.58-2.87,7.59-5.22,11.41-7.8-.27-3.28-2.41-3.67-5-3.76-8.1-.26-16.2-.66-24.3-1l-.36-1.14c1.84-.94,3.65-1.93,5.51-2.81q14.63-7,29.3-13.9c2.66-1.25,4.6-2.82,5.27-6a5.88,5.88,0,0,1,3.17-3.54c13.18-5.22,26.7-8.68,41.09-6.91,15.76,1.94,29,13.18,33.08,28,6.41,23.15-10.05,50.54-38.32,56.35-5.06,7.32-11.4,13.47-17.87,16.95-7.66,4.12-15,3.58-22.41-.6-5.91-3.33-3.21-8.42-3.73-13.68,15.19,2.22,26.66-4,37.63-12-.2-.36-.42-.72-.62-1.08-1.34-2.43-3.07-3.21-5.88-2.53-6.27,1.53-12.56,3.05-18.93,4-11.36,1.77-21.45-1.2-29.85-9.22S299.62,246.06,308.7,238.78ZM215,388.77a34.47,34.47,0,0,1,27.88-30.88c19-3.73,36.87,2.22,55,6.06-1.79,8.29-3.47,16-5.17,23.89l-33.41-10.67c-3.22,8.34-8.86,12.26-16.55,12.11-9.29-.18-18.48-.44-27.75,3.34C215,390.93,214.87,389.84,215,388.77Zm26.78,132.12H223.82v56.33H174.07V408.76h67.69c39.13,0,63.44,21.57,63.44,56.29A60,60,0,0,1,303.55,479C298.35,500.52,280.29,520.89,241.76,520.89ZM419.85,656.81c-1.65.78-4.42.42-6.18-.42-28.3-13.63-55.05-29.75-79.51-49.56a340.5,340.5,0,0,1-65-69.29,72.24,72.24,0,0,0,18.71-10.32c31.77,45,74.57,79.83,127.06,105.53a6.45,6.45,0,0,0,5,0c32.31-15.91,62.41-35.08,88.31-60.37q81.87-79.93,93.62-193.76c3.24-31.88,2-63.69-.34-95.52-.1-1.25-1.8-3-3.1-3.45-15-4.68-30.05-9.11-45.07-13.71-1.33-.4-3.39-1.34-3.52-2.26-.94-6.62-1.47-13.3-2.15-20.21a13.05,13.05,0,0,1,1.9.21c22.37,6.41,44.73,12.89,67.13,19.19,4.39,1.23,5.8,3.89,6,8.14.85,17.52,2.22,35,2.79,52.56.94,28.69-.5,57.22-6,85.5-11.4,58.31-36.48,110-74.62,155.38C510.62,605.21,467.5,634.12,419.85,656.81Zm119.9-.65L522.5,631.08c-1.7,1.17-2.56,1.75-4.29,2.88l-3.58-5.47c4.17-2.73,6.21-4.15,10.21-7.11,8.78,11.91,13.18,17.86,22,29.76C544,653.19,542.61,654.2,539.75,656.16Zm27.12-21.37c-6.88,6.22-13.58,5-17.36,1.11,2.33-1.89,3.48-2.84,5.75-4.79,2.39,1.82,5.14,1.67,8-.88,3.56-3.22,2.92-6.94-2.84-13,.26,2.77-1.32,6-4,8.41-5.34,4.75-12.35,5.19-17.23-.9-4.64-5.79-3.94-12.47,1.92-17.74,7.53-6.77,14.41-4.37,22.75,3.87C572.76,619.76,575.44,627.05,566.87,634.79Zm26.85-28.16c-5.88,7.17-12.68,7-17,3.65,2-2.2,3-3.32,4.95-5.58,2.64,1.45,5.34.9,7.75-2,3-3.71,1.85-7.29-4.73-12.39.66,2.71-.42,6.13-2.74,8.92-4.56,5.49-11.41,6.94-17.15,1.64-5.45-5-5.76-11.72-.75-17.8,6.43-7.81,13.61-6.46,23.08.45C597.3,590.89,601,597.71,593.72,606.63Zm8.63-21.2c-.39-12-1.25-23.6-7.14-27-2.85-1.65-5.53-1.42-7.42,1.69s-.86,6,2.4,8.11c-1.59,2.48-2.4,3.71-4.07,6.13-6.83-5-6.93-11.72-3.44-17.47,4.19-6.89,10.18-8.31,15.86-5.27,7.56,4,9,15.32,9.67,23.72,3.64-5.87,5.37-8.87,8.62-15L622,563.1a216.93,216.93,0,0,1-15.32,25.31Z"/><path d="M291.58,479a47.39,47.39,0,0,0,2.09-13.91c0-28-19.4-44.76-51.91-44.76H185.6V479h26.7V439.61h26.55c17.45,0,27.45,9.27,27.45,25.44A27.59,27.59,0,0,1,263,479Z"/><path d="M371.92,212.59c-11.48-3.45-22.42-2.62-32.63,5.26l8.35,9Z"/><path d="M545.28,611.37a5.88,5.88,0,0,0-.61,8.76c2.18,2.55,5.54,3.32,9,.17,2.88-2.6,2.9-5.94.42-8.55C551.32,608.81,548.05,608.87,545.28,611.37Z"/><path d="M568.88,586.67c-2.43,3-2.09,6.32.71,8.75,2.53,2.19,6,2.47,8.95-1.17,2.45-3,2-6.3-.86-8.51C574.48,583.24,571.25,583.79,568.88,586.67Z"/><path class="cls-1" d="M461.5,184.78c3.17,5,5.53,10,9,14,6.87,7.95,14.34,15.37,21.54,23a23.5,23.5,0,0,1,1.67,2.34l-16.16-4.53-.62.76c.91,1,1.78,2.11,2.73,3.11C497.81,242.48,505,265,501.35,291a9.72,9.72,0,0,0,1.83,7.74c9.1,12.61,14.23,26.94,17.6,42a8.72,8.72,0,0,0,1.69,3.75c14.72-41.92,3.79-79-21.64-113.4l.72-1c4.9,3.5,10.08,6.68,14.61,10.61s8.34,8.61,13.23,13.76C526.64,219.33,490.32,181.9,461.5,184.78Z"/><path class="cls-1" d="M522.22,535.63c5-6.92,9.77-13.08,14.09-19.53A299.72,299.72,0,0,0,568,454.52a6.93,6.93,0,0,0-.69-5.6c-16.1-21.76-32.38-43.4-48.64-65.05-.83-1.1-1.82-2.08-3.44-3.92-6,24.05-18.7,44-29.5,64.91-6.47,12.52-10.3,25.78-10.32,40a7.92,7.92,0,0,0,1.92,5.09C492,505,506.82,520,522.22,535.63Z"/><path class="cls-1" d="M388.32,174.85a11,11,0,0,0,2.13-.54c21.86-12,44.58-12.61,68-5.51,10.27,3.11,20.81,4.94,31.44,1.5a74.29,74.29,0,0,0,7.74-3.49c-.1-.35-.19-.7-.28-1.06-11.35-.15-20.88-5.68-30.83-10-20.5-8.95-41-10.23-61.17.91C398,160.72,392.6,166.83,388.32,174.85Z"/><path class="cls-1" d="M422,607.88c8-.76,13.05-6.67,16.84-13.36,5.21-9.2,7.45-19.34,8.58-29.71,3.21-29.57,6.2-59.16,9.43-88.72,1.93-17.61,8.76-33.56,17.44-48.77,10-17.46,19.45-35.12,24.17-54.87,4.12-17.27,4.58-34.55-.58-51.9-.9,3.58-1.66,7.2-2.73,10.73-7.73,25.38-22.56,46.58-39.42,66.56-10.23,12.12-20.84,23.94-30.67,36.38-4.92,6.22-8.71,13.4-12.63,20.35-5.71,10.12-7.13,21.07-5.95,32.59,3.2,31.41,6.18,62.86,9.25,94.29.12,1.23.16,2.48.25,3.94-12.4,2.53-18.71,10.49-20.83,22.68C404.36,608.07,413.25,608.71,422,607.88Z"/><path class="cls-1" d="M363.26,183c15.66-28,39.68-41.77,71.71-44.25a61,61,0,0,0-25.81-3.4c-12.13.92-23.43,4.33-33,12.23-10.4,8.61-14.86,19.73-13.71,33.14A12.41,12.41,0,0,0,363.26,183Z"/><path class="cls-1" d="M337.7,267.31c6.37-1,12.66-2.51,18.93-4,2.81-.68,4.54.1,5.88,2.53.2.36.42.72.62,1.08-11,8-22.44,14.23-37.63,12,.52,5.26-2.18,10.35,3.73,13.68,7.41,4.18,14.75,4.72,22.41.6,6.47-3.48,12.81-9.63,17.87-16.95,28.27-5.81,44.73-33.2,38.32-56.35-4.08-14.77-17.32-26-33.08-28-14.39-1.77-27.91,1.69-41.09,6.91a5.88,5.88,0,0,0-3.17,3.54c-.67,3.17-2.61,4.74-5.27,6q-14.69,6.9-29.3,13.9c-1.86.88-3.67,1.87-5.51,2.81l.36,1.14c8.1.35,16.2.75,24.3,1,2.63.09,4.77.48,5,3.76-3.82,2.58-7.83,4.93-11.41,7.8-9.08,7.28-9.2,11.34-.85,19.31S326.34,269.08,337.7,267.31Zm34.22-54.72-24.28,14.28-8.35-9C349.5,210,360.44,209.14,371.92,212.59Z"/><path class="cls-1" d="M458.13,327.16c13.92-16.24,21.36-35.17,21.14-56.64-.14-14.48-5-27.36-14.84-37.64,4.06,36.69-5.16,70.82-19.12,105.67C450.1,334.35,454.65,331.22,458.13,327.16Z"/><path class="cls-1" d="M373.75,345.77c11.22-8.85,23.29-16.63,35-24.8,14.65-10.2,26.94-22.51,34.47-38.94,6.35-13.85,7.37-27.9-.09-41.67a36.85,36.85,0,0,0-8.77-10.16c.55,5.52,1.57,11,1.56,16.56,0,19-8.19,34.65-20.93,48.24-8.55,9.13-19,15.7-29.49,22.25-13,8.09-26.48,15.54-38.42,25-17.11,13.52-28.67,31.17-31.57,53.42-1.91,14.67,1.23,28.55,8.22,41.44,3.43,6.32,7.75,12.15,11.67,18.21l.81-.74c-.88-8-2.42-16.07-2.53-24.13C333.24,395.75,346.53,367.26,373.75,345.77Z"/><path class="cls-1" d="M368.37,293.78c-8.92,3.73-18,7-26.74,11.2a56,56,0,0,0-26,24.92c-.7,1.33-1.28,2.74-2.44,5.22,1.78-1.23,2.62-1.76,3.39-2.37,12.25-9.63,26.67-14.67,41.21-19.47,16.23-5.37,31.65-12.26,44.16-24.37,10.33-10,16.54-21.94,17.18-36.94-3.22,4.69-6,9.24-9.25,13.34C399,279,384.18,287.16,368.37,293.78Z"/><path class="cls-1" d="M419.93,350.14c6.67-9.24,12.54-19,15.27-30.22.23-.93.34-1.88.39-2.14-10.85,8.49-21.67,17.14-32.69,25.54-14.23,10.84-28.28,21.88-37.74,37.45C346.78,411,345.92,442,362.72,473.13c2.81,5.21,7,9.7,10.51,14.52l.95-.49c-.86-4-1.85-8-2.57-12-5.53-31,2.54-59.12,19-85C399.49,376.28,410.24,363.56,419.93,350.14Z"/><path class="cls-1" d="M478.15,329.92l.2-.18c0-.21-.05-.35-.06-.44v.09C478.25,329.57,478.19,329.74,478.15,329.92Z"/><path class="cls-1" d="M428.15,370.56c-12.39,9.86-22.64,21.41-27.36,37-3.19,10.52-3.33,21.28-2,32.1a23.5,23.5,0,0,0,1.07,3.59c14.48-25.85,36.57-44.79,54.42-67.18,11-13.82,20.09-28.61,23.91-46.11-4.18,3.77-8.67,8.19-13.57,12.11C452.53,351.66,440.22,361,428.15,370.56Z"/><path class="cls-1" d="M242.72,389.28c7.69.15,13.33-3.77,16.55-12.11l33.41,10.67c1.7-7.85,3.38-15.6,5.17-23.89-18.12-3.84-36-9.79-55-6.06A34.47,34.47,0,0,0,215,388.77c-.11,1.07,0,2.16,0,3.85C224.24,388.84,233.43,389.1,242.72,389.28Z"/><path class="cls-1" d="M425.23,215.43c7,2.56,16.7-2,20.59-9.61a21.75,21.75,0,0,0-7.67-28.43,23.76,23.76,0,0,0-30.82,4.76c-2,2.43-3.42,5.33-5.11,8l.92,1.17c2.51-.72,5-1.4,7.51-2.18,3.74-1.17,7.38-2.75,11.19-3.56,7.2-1.54,13.11,3.47,13.21,10.84.08,5.52-2.56,9.95-5.77,14.12C428,212.21,426.61,213.78,425.23,215.43Z"/><path class="cls-1" d="M544.88,564.44C583,519.06,608.1,467.37,619.5,409.06c5.53-28.28,7-56.81,6-85.5-.57-17.53-1.94-35-2.79-52.56-.21-4.25-1.62-6.91-6-8.14-22.4-6.3-44.76-12.78-67.13-19.19a13.05,13.05,0,0,0-1.9-.21c.68,6.91,1.21,13.59,2.15,20.21.13.92,2.19,1.86,3.52,2.26,15,4.6,30.08,9,45.07,13.71,1.3.41,3,2.2,3.1,3.45,2.35,31.83,3.58,63.64.34,95.52q-11.58,114-93.62,193.76c-25.9,25.29-56,44.46-88.31,60.37a6.45,6.45,0,0,1-5,0c-52.49-25.7-95.29-60.52-127.06-105.53a72.24,72.24,0,0,1-18.71,10.32,340.5,340.5,0,0,0,65,69.29c24.46,19.81,51.21,35.93,79.51,49.56,1.76.84,4.53,1.2,6.18.42C467.5,634.12,510.62,605.21,544.88,564.44Z"/><path class="cls-1" d="M303.55,479a60,60,0,0,0,1.65-13.91c0-34.72-24.31-56.29-63.44-56.29H174.07V577.22h49.75V520.89h17.94C280.29,520.89,298.35,500.52,303.55,479Zm-64.7,0h-15V451.14h15c14,0,15.92,7,15.92,13.91S252.88,479,238.85,479Zm0-39.35H212.3V479H185.6V420.29h56.16c32.51,0,51.91,16.73,51.91,44.76A47.39,47.39,0,0,1,291.58,479H263a27.59,27.59,0,0,0,3.35-13.91C266.3,448.88,256.3,439.61,238.85,439.61Z"/><path class="cls-1" d="M514.63,628.49l3.58,5.47c1.73-1.13,2.59-1.71,4.29-2.88l17.25,25.08c2.86-2,4.27-3,7-5-8.78-11.9-13.18-17.85-22-29.76C520.84,624.34,518.8,625.76,514.63,628.49Z"/><path class="cls-1" d="M541.05,607.05c-5.86,5.27-6.56,12-1.92,17.74,4.88,6.09,11.89,5.65,17.23.9,2.7-2.42,4.28-5.64,4-8.41,5.76,6,6.4,9.73,2.84,13-2.82,2.55-5.57,2.7-8,.88-2.27,1.95-3.42,2.9-5.75,4.79,3.78,3.93,10.48,5.11,17.36-1.11,8.57-7.74,5.89-15-3.07-23.87C555.46,602.68,548.58,600.28,541.05,607.05ZM553.7,620.3c-3.49,3.15-6.85,2.38-9-.17a5.88,5.88,0,0,1,.61-8.76c2.77-2.5,6-2.56,8.84.38C556.6,614.36,556.58,617.7,553.7,620.3Z"/><path class="cls-1" d="M587.14,583.48c-9.47-6.91-16.65-8.26-23.08-.45-5,6.08-4.7,12.77.75,17.8,5.74,5.3,12.59,3.85,17.15-1.64,2.32-2.79,3.4-6.21,2.74-8.92,6.58,5.1,7.76,8.68,4.73,12.39-2.41,2.94-5.11,3.49-7.75,2-1.94,2.26-2.94,3.38-4.95,5.58,4.31,3.33,11.11,3.52,17-3.65C601,597.71,597.3,590.89,587.14,583.48Zm-8.6,10.77c-3,3.64-6.42,3.36-8.95,1.17-2.8-2.43-3.14-5.79-.71-8.75s5.6-3.43,8.8-.93C580.53,588,581,591.26,578.54,594.25Z"/><path class="cls-1" d="M616.83,560.34c-3.25,6.13-5,9.13-8.62,15-.65-8.4-2.11-19.68-9.67-23.72-5.68-3-11.67-1.62-15.86,5.27-3.49,5.75-3.39,12.46,3.44,17.47,1.67-2.42,2.48-3.65,4.07-6.13-3.26-2.15-4.24-5.1-2.4-8.11s4.57-3.34,7.42-1.69c5.89,3.4,6.75,15,7.14,27l4.35,3A216.93,216.93,0,0,0,622,563.1Z"/></g></svg>